<?xml version="1.0" encoding="utf-8"?>
<!-- Generator: Adobe Illustrator 27.0.0, SVG Export Plug-In . SVG Version: 6.00 Build 0)  -->
<svg version="1.1" id="레이어_1" xmlns="http://www.w3.org/2000/svg" xmlns:xlink="http://www.w3.org/1999/xlink" x="0px"
	 y="0px" viewBox="0 0 595.28 841.89" style="enable-background:new 0 0 595.28 841.89;" xml:space="preserve">
<style type="text/css">
	.st0{fill:#083682;}
</style>
<g>
	<path class="st0" d="M202.14,464.44c-0.27-0.33-0.55-0.66-0.83-0.99c-0.83-0.99-1.61-1.93-2.48-2.79c-1.11-1.06-2.5-1.92-4.13-2.55
		c-1.35-0.53-2.88-0.92-4.56-1.16c0.53,0.18,0.99,0.41,1.38,0.66c0.82,0.54,1.86,1.4,3.18,2.49c2.78,2.29,6.54,5.4,11.15,7.81
		C204.6,467.07,203.39,465.93,202.14,464.44z"/>
	<path class="st0" d="M320.04,429.07c5.15-5.65,10.02-9.99,25.27-20.76c14.63-10.31,46.64-30.39,64.1-39.45
		c-1.8,0.78-3.69,1.62-5.1,2.29l-0.14-0.26c0.07-0.06,0.22-0.16,0.42-0.29c1.17-0.8,4.25-2.89,6.56-4.65
		c-3.24,1.86-10.68,6.04-19.89,10.46c-3.09,2.08-6.2,4.16-9.32,6.25l-0.56,0.37c-1.96,1.31-3.93,2.61-5.89,3.91
		c-4.01,2.66-8.15,5.41-12.25,8.09l-9.11,5.94c-1.02,0.65-2.03,1.3-3.05,1.96c-1.99,1.29-6.27,3.67-6.27,3.67
		c2.06-1.45,4.17-2.9,6.2-4.31c0.92-0.62,1.83-1.25,2.74-1.88l9-6.12c3.79-2.59,7.66-5.18,11.41-7.7c2.21-1.48,4.42-2.96,6.63-4.44
		l0.34-0.23c1.35-0.89,2.7-1.79,4.04-2.68c-3.43,1.55-6.74,2.94-9.85,4.16l-0.1,0.07c-0.57,0.42-1.14,0.83-1.71,1.23
		c-1.78,1.25-3.55,2.51-5.32,3.76c-3.51,2.48-7.14,5.05-10.73,7.55l-8.06,5.6c-0.89,0.61-1.77,1.21-2.64,1.81
		c-1.8,1.23-5.66,3.49-5.66,3.49c1.57-1.18,3.18-2.37,4.73-3.51c1.06-0.78,2.11-1.56,3.16-2.34l7.94-5.77
		c3.41-2.48,6.9-4.98,10.28-7.4c1.39-0.99,2.78-1.99,4.18-2.99c-0.12,0.04-0.23,0.08-0.35,0.12c-2.9,1.06-5.64,1.92-8.16,2.59
		c-0.1,0.08-0.21,0.17-0.31,0.24c-1.26,0.96-2.52,1.93-3.79,2.89c-2.79,2.13-5.68,4.34-8.54,6.49l-7.79,5.81
		c-1.53,1.12-4.86,3.17-4.86,3.17c1.32-1.09,2.67-2.17,3.98-3.23c0.68-0.54,1.36-1.09,2.05-1.65l6.07-4.81
		c2.76-2.18,5.58-4.37,8.32-6.48l2.3-1.79c-2.25,0.5-4.39,0.86-6.35,1.05l-1.36,1.19c-2.49,2.18-5.07,4.44-7.62,6.62l-5.71,4.89
		c-0.74,0.62-1.47,1.23-2.19,1.85c-1.17,0.98-3.78,2.76-3.78,2.76c1.27-1.2,2.58-2.41,3.85-3.58c0.56-0.51,1.11-1.02,1.67-1.53
		l5.57-5.06c2.63-2.38,5.38-4.82,7.84-7c-1.25,0.07-2.37,0.07-3.44,0.01c-1.94,1.77-4.13,3.76-6.32,5.71l-6.13,5.47
		c-0.74,0.65-1.48,1.3-2.22,1.95c-1.3,1.15-4.17,3.25-4.17,3.25c1.37-1.34,2.78-2.69,4.15-4c0.59-0.57,1.19-1.13,1.78-1.7l5.99-5.63
		c1.67-1.56,3.43-3.2,5.53-5.14c-1.78-0.19-3.42-0.55-5-1.1c-1.69,1.6-3.39,3.2-5.09,4.79l-6.05,5.63
		c-0.61,0.56-1.21,1.12-1.82,1.68c-1.4,1.28-4.24,3.75-4.24,3.75c1.35-1.37,2.49-2.82,3.83-4.15c0.59-0.59,1.18-1.18,1.76-1.77
		l5.9-5.79c1.6-1.56,3.23-3.13,4.68-4.53c-1.27-0.53-2.48-1.19-3.79-2.07l-0.12,0.12c-1.2,1.12-2.41,2.25-3.62,3.37l-6.5,5.95
		c-1.29,1.17-2.63,2.38-3.97,3.56l-2.3,1.96l2.09-2.18c1.1-1.12,2.24-2.25,3.33-3.33c0.56-0.56,1.12-1.11,1.67-1.67l5.07-4.94
		c0.72-0.71,1.45-1.41,2.18-2.11c0.46-0.44,0.91-0.87,1.36-1.31c-1.07-0.83-1.91-2.29-2.5-4.35c-0.21,0.21-0.42,0.42-0.62,0.63
		l-6.67,6.69c-0.76,0.74-1.51,1.48-2.26,2.23c-1.46,1.45-2.96,2.94-4.47,4.4l-1.53,1.36l1.32-1.57c1.35-1.46,2.73-2.94,4.08-4.36
		c0.79-0.85,1.58-1.69,2.37-2.53l6.51-6.84c0.33-0.35,0.66-0.69,1-1.04c-0.35-1.52-0.6-3.33-0.73-5.38
		c-1.64,1.83-3.01,3.36-4.32,4.79l-5.17,5.64c-0.53,0.57-1.06,1.14-1.59,1.71c-1.19,1.27-2.42,2.59-3.64,3.87l-1.68,1.6l1.46-1.8
		c1.03-1.24,2.1-2.5,3.13-3.71c0.61-0.71,1.21-1.42,1.82-2.13l5-5.78c1.46-1.69,3.08-3.53,4.93-5.62c-0.06-1.84-0.04-3.81,0.07-5.87
		c-2.12,2.67-3.77,4.73-5.31,6.63l-4.81,5.92c-0.66,0.79-1.3,1.57-1.95,2.35c-0.96,1.16-1.95,2.36-2.94,3.53l-1.97,2.21l1.74-2.4
		c0.88-1.2,1.8-2.41,2.68-3.58c0.64-0.84,1.27-1.69,1.9-2.53l4.64-6.05c2.01-2.61,4.07-5.24,6.06-7.78l0.07-0.1
		c0.18-2.36,0.46-4.83,0.82-7.19l-1.73,2.38c-1.77,2.44-3.6,4.97-5.42,7.44l-6.01,8.09c-1.12,1.49-2.28,3.03-3.43,4.54l-2.07,2.56
		l1.83-2.73c1.01-1.52,2.06-3.05,3.07-4.53c0.46-0.66,0.91-1.33,1.37-1.99l4.51-6.47c1.84-2.62,3.73-5.28,5.56-7.84
		c0.9-1.27,1.8-2.53,2.7-3.8c0.07-0.41,0.14-0.81,0.22-1.21c0.48-2.49,1.58-5.83,3.19-9.71c-0.21,0.31-0.42,0.61-0.62,0.92
		c-1.09,1.58-2.16,3.15-3.24,4.73c-2.29,3.36-4.66,6.83-7.03,10.24l-5.18,7.44c-0.67,0.95-1.35,1.9-2.02,2.85
		c-1.05,1.49-2.14,3.04-3.23,4.55l-1.33,1.59l1.08-1.76c1.36-2.12,2.75-4.25,4.1-6.31l0.84-1.3l5.01-7.57
		c1.93-2.93,3.92-5.88,5.85-8.74c1.42-2.11,2.83-4.21,4.24-6.32c1.32-1.91,2.63-3.81,3.93-5.72c4.41-9.38,10.3-19.27,15.6-26.33
		c-1.69,1.92-3.83,4.51-5.78,7.31l-0.25-0.16c0.2-0.4,4.72-9.27,10.01-17c-3.03,3.52-9.43,11.59-15.93,23.56
		c-10.74,19.82-25.42,42.41-36.14,58.91c-4,6.15-7.46,11.47-9.65,15.04c-7.02,11.4-15.37,11.63-20.37,11.76
		c-0.61,0.02-1.2,0.03-1.71,0.07l-0.16,0.01v-0.02c-0.36,0.01-0.72,0.02-1.08,0.02c-0.43,0.01-0.86,0.02-1.28,0.04l-0.94,0.04
		c-1.71,0.06-3.48,0.13-5.22,0.27c-4.75,0.36-8.59,0.95-12.09,1.87c-2.16,0.56-4.03,1.21-5.74,1.98c-0.81,0.34-1.64,0.76-2.71,1.35
		c-0.87,0.52-1.73,1.05-2.53,1.65c-2.97,2.17-5.59,5.28-7.81,9.25l-0.68,0.96l0.41-1.09c0.88-2,1.91-3.83,3.06-5.45
		c1.25-1.74,2.71-3.27,4.34-4.56c2.95-2.37,6.76-4.18,11.32-5.38c3.78-0.97,7.94-1.52,12.38-1.65l1.55-0.04h1.55
		c0.73-0.01,1.47,0.02,2.19,0.05c0.3,0.01,0.61,0.02,0.91,0.03l1.56,0.09c0.12,0.01,0.25,0.02,0.37,0.02
		c0.2,0.02,0.39,0.03,0.58,0.04c0.14-0.39,0.4-1.24,0.43-2.46c-0.72-0.36-1.47-0.65-2.22-0.87c-1.08-0.32-2.24-0.54-3.45-0.64
		c-2.11-0.19-4.42-0.12-7.05,0.22c-2.18,0.29-4.47,0.73-6.99,1.35c-2.59,0.65-4.84,1.29-6.88,1.97l-2.23,0.68l2.12-0.96
		c2.04-0.98,4.31-1.84,6.75-2.57c2.36-0.71,4.75-1.23,7.09-1.54c1.33-0.15,2.52-0.24,3.64-0.27c1.32-0.01,2.52,0.06,3.65,0.22
		c2.09,0.28,4.01,0.93,5.57,1.89c-0.05-1.52-0.46-3.06-1.23-4.59l-0.35-0.07c-0.68-0.13-1.38-0.27-2.09-0.3
		c-0.23-0.02-0.45-0.04-0.68-0.07c-0.32-0.04-0.66-0.07-0.98-0.08l-1.69-0.06c-0.23-0.02-0.48-0.01-0.81,0.01l-0.85,0.02
		c-0.54,0.01-1.09,0.02-1.65,0.09c-0.23,0.02-0.45,0.04-0.67,0.05c-0.33,0.03-0.67,0.05-1,0.09l-1.66,0.23
		c-2.08,0.32-4.28,0.79-6.53,1.4c-1.17,0.32-2.23,0.64-3.22,0.96c-1.03,0.32-2.05,0.7-3.18,1.13l-1.74,0.73l1.62-1
		c1.87-1.04,3.91-1.92,6.25-2.69c2.1-0.69,4.33-1.23,6.65-1.6c2.15-0.33,4.45-0.45,6.84-0.33c1.74,0.09,3.57,0.41,5.46,0.96
		c-0.48-0.85-1.06-1.68-1.74-2.48c-0.74-0.88-1.71-1.76-2.96-2.69c-0.43,0.03-0.86,0.06-1.27,0.14c-0.18,0.02-0.35,0.04-0.52,0.05
		c-0.34,0.04-0.68,0.08-1.02,0.13l-1.52,0.25c-2.3,0.42-4.19,0.88-5.94,1.43c-1.88,0.56-3.77,1.22-5.79,2.04
		c-2.18,0.89-3.97,1.7-5.63,2.53l-1.76,0.87l1.6-1.12c1.6-1.12,3.43-2.17,5.43-3.12c1.81-0.85,3.77-1.6,5.84-2.23
		c1.96-0.6,4.02-1.04,6.12-1.31c1.17-0.15,2.38-0.22,3.68-0.2c-1.94-1.32-4.14-2.51-6.78-3.9c-0.35,0.08-0.71,0.17-1.13,0.28
		c-1.57,0.46-3.02,0.96-4.43,1.52c-1.31,0.52-2.73,1.14-4.33,1.89c-1.36,0.65-2.81,1.35-4.24,2.1l-1.8,1.07l1.64-1.32
		c1.2-0.95,2.55-1.85,4-2.66c1.28-0.73,2.69-1.42,4.32-2.09c1.65-0.63,3.16-1.08,4.63-1.39c0.05-0.01,0.1-0.02,0.16-0.03
		c-1.86-0.98-3.67-1.96-5.34-2.98c-0.69,0.24-1.25,0.46-1.75,0.68c-1.01,0.41-1.93,0.85-2.82,1.33c-1.67,0.86-3.37,1.91-5.35,3.29
		l-1.05,0.85l0.84-1.06c0.58-0.76,1.32-1.48,2.33-2.28c0.83-0.65,1.75-1.24,2.73-1.75c0.38-0.21,0.79-0.4,1.19-0.57l0.28-0.13
		c0.17-0.06,0.33-0.12,0.48-0.18c0.35-0.13,0.7-0.26,1.07-0.36c0.41-0.12,0.83-0.23,1.27-0.32c-1.77-1.14-3.19-2.25-4.32-3.37
		c-1.48,0.7-2.79,1.4-3.99,2.15c-0.76,0.49-1.57,1.03-2.33,1.63c-0.79,0.61-1.48,1.23-2.11,1.9l-1.17,1.19l0.94-1.37
		c0.95-1.43,2.28-2.73,4.16-4.1c1.07-0.77,2.29-1.5,3.72-2.21c-0.25-0.27-0.49-0.56-0.71-0.85c-0.94-1.24-1.54-3.21-1.78-5.88
		c-0.71,0.49-1.41,1.02-2.09,1.56c-1.6,1.27-3.21,2.72-4.94,4.44c-1.82,1.83-3.25,3.4-4.51,4.92l-1.49,1.91l1.24-2.09
		c1.12-1.78,2.49-3.58,4.1-5.37c1.51-1.67,3.17-3.24,4.93-4.66c0.94-0.73,1.82-1.36,2.68-1.92c-0.1-1.92-0.04-4.16,0.18-6.85
		c-1.59,1.65-3.19,3.47-4.76,5.42c-0.98,1.22-1.96,2.52-2.92,3.87c-0.9,1.24-1.79,2.56-2.7,4.02l-1.66,2.41l1.4-2.56
		c0.69-1.43,1.5-2.77,2.4-4.25c0.87-1.37,1.8-2.72,2.77-4.03c1.63-2.22,3.52-4.43,5.62-6.56c0.13-1.33,0.3-2.73,0.5-4.17
		c-1.21,1.26-2.47,2.64-3.93,4.31c-0.86,0.99-1.76,2.05-2.73,3.25c-0.89,1.07-1.75,2.17-2.59,3.24l-0.08,0.11l-1.73,2.16l1.48-2.33
		c0.65-1.09,1.38-2.15,2.08-3.17l0.29-0.41c0.92-1.26,1.76-2.38,2.59-3.42c1.49-1.88,3.13-3.73,4.87-5.52
		c0.33-2.25,0.7-4.47,1.08-6.6c-1.72,1.89-3.48,4.04-5.37,6.56c-0.88,1.19-1.72,2.38-2.47,3.53c-0.88,1.26-1.68,2.55-2.34,3.65
		l-1.45,2.27l1.18-2.41c1.08-2.33,2.46-4.73,4.36-7.55c1.55-2.31,3.36-4.62,5.39-6.88c0.26-0.28,0.53-0.56,0.8-0.84l0.25-0.25
		c0.5-2.72,1.09-5.73,1.8-9.18c-0.4,0.52-0.82,1.08-1.28,1.7c-2.35,3.12-4.55,6.37-6.42,9.18c-1.04,1.59-2.06,3.18-3.01,4.73
		c-1.04,1.62-2.03,3.25-2.95,4.79l-1.36,2.15l1.1-2.3c0.8-1.65,1.66-3.23,2.62-4.98c0.86-1.53,1.79-3.13,2.85-4.87
		c1.96-3.21,4.08-6.36,6.3-9.34c0.84-1.13,1.7-2.23,2.63-3.36c0.44-2.13,0.9-4.26,1.35-6.38l0.15-0.7c-0.03,0.03-0.06,0.07-0.1,0.11
		c-1.29,1.42-2.48,2.88-3.54,4.32c-2.01,2.67-4,5.75-6.09,9.42c-0.9,1.59-1.79,3.26-2.64,4.97c-0.79,1.56-1.58,3.23-2.4,5.09
		l-0.96,1.82l0.68-1.93c1.1-3.23,2.59-6.62,4.54-10.38c0.75-1.47,1.64-3.04,2.8-4.94c0.96-1.53,2.01-3.07,3.2-4.7
		c1.67-2.2,3.28-4.05,4.91-5.67c0.67-3.16,1.27-6,1.84-8.73c-0.22,0.31-0.44,0.62-0.65,0.93c-3.31,4.78-6.32,9.76-8.57,13.57
		c-1.39,2.33-2.73,4.67-3.99,6.96c-1.18,2.11-2.43,4.43-3.81,7.08l-0.93,1.59l0.66-1.72c1.97-4.42,4.35-9.11,7.29-14.36
		c1.12-2.03,2.38-4.17,4.09-6.95c1.35-2.19,2.82-4.47,4.37-6.77c0.6-0.87,1.26-1.81,2.07-2.95c0.81-3.85,1.47-6.86,2.08-9.38
		c-1.57,2.2-2.89,4.18-4.03,6.06c-2.07,3.27-4.13,6.87-6.31,11.02c-1.04,2-1.97,3.86-2.82,5.68c-1,2.03-1.9,4.07-2.64,5.8
		l-1.08,2.12l0.8-2.23c1.24-3.62,2.81-7.36,4.94-11.78c1.7-3.48,3.72-7.14,6.19-11.18l1.74-2.69l1.84-2.63
		c0.54-0.8,1.14-1.58,1.72-2.33l0.28-0.37c2.72-10.66,5.09-15.39,9.63-19.1c-1.05-0.03-4.4,0.35-8.54,5.75
		c-2.44,3.17-13.65,23.15-24.66,46.28c-9.54,20.04-21.03,46.85-21.62,60.75c-0.55,13.03,0.16,21.03,2.3,25.94
		c1.97,4.51,5.13,6.64,10.91,7.34l0.44,0.05l-0.38,0.23c-0.05,0.02-4.29,2.45-9.67,0.17c-1.71-0.73-6.23-1.44-11.08-0.27
		c-4.19,1.02-9.92,3.78-13.42,11.18l-0.04,0.08l-0.08,0.01c-0.08,0.01-8.01,1.12-12.62,6.29c0.39-0.19,0.76-0.36,1.13-0.5
		c0.37-0.18,0.77-0.32,1.16-0.46c0.19-0.06,0.38-0.13,0.57-0.2c0.19-0.06,0.37-0.11,0.55-0.16c0.41-0.12,0.83-0.25,1.26-0.35
		c1.33-0.31,2.54-0.5,3.68-0.58c1.39-0.11,2.61-0.11,3.73,0.02l1.32,0.21l-1.33,0.09c-0.6,0.04-1.21,0.08-1.83,0.15
		c-0.55,0.05-1.16,0.13-1.81,0.23c-1.33,0.2-2.5,0.42-3.57,0.69c-1.11,0.25-2.28,0.59-3.49,1.01c-0.12,0.04-0.25,0.09-0.37,0.13
		c1.36-0.16,2.64-0.23,3.82-0.21c0.87-0.09,1.72-0.13,2.56-0.13c2.4,0,4.7,0.36,6.86,1.08c1.84,0.67,3.37,1.57,4.52,2.68
		c1.13,1.09,2.12,2.3,3.08,3.46l0.33,0.4c1.25,1.5,2.38,2.58,3.57,3.4c0.63,0.45,1.33,0.86,2.13,1.27c0.79,0.41,1.53,0.76,2.27,1.05
		c1.48,0.62,2.97,1.09,4.76,1.64c0.42,0.12,0.84,0.24,1.26,0.36l0.34,0.1c4.77,0.79,7.12,1.27,9.6,1.79
		c1.54,0.32,3.15,0.65,5.43,1.07c12.04,2.23,28.94-0.22,46.92-6.88c-1.46-0.04-2.68-0.04-4.06-0.01l-1.18,0.03
		c-1.74,0.04-3.45-0.02-5.16-0.03c-0.56-0.01-1.1-0.02-1.63-0.04h-0.06c-0.18-0.01-0.38-0.02-0.61-0.04
		c-0.05-0.01-0.09-0.01-0.13-0.01c-0.04,0-0.09-0.01-0.14-0.01c-0.14,0-0.3-0.01-0.46-0.03c-0.07-0.01-0.16-0.01-0.25-0.02
		c-0.09-0.01-0.18-0.01-0.28-0.02c-0.37-0.04-0.73-0.07-1.09-0.1c-0.88-0.08-1.78-0.16-2.67-0.27c-1.23-0.14-2.5-0.28-3.74-0.46
		c-2.44-0.32-4.88-0.77-7.44-1.36c-2.62-0.62-4.99-1.37-7.23-2.29c-1.12-0.45-2.27-1.03-3.41-1.72c-0.83-0.55-2.03-1.41-2.83-2.66
		c-0.15-0.2-0.25-0.45-0.35-0.69c-0.03-0.07-0.06-0.14-0.09-0.21c-0.06-0.11-0.08-0.24-0.11-0.36c-0.01-0.04-0.01-0.09-0.03-0.13
		c-0.01-0.06-0.02-0.11-0.03-0.16c-0.03-0.12-0.06-0.24-0.06-0.36c-0.05-0.64,0.05-1.3,0.29-1.97c0.52-1.34,1.48-2.37,2.27-3.12
		c1.65-1.54,3.72-2.88,6.33-4.12l1.87-0.79l-1.74,1.06c-1.08,0.54-2.16,1.18-3.22,1.89c-1.2,0.81-2.12,1.55-2.89,2.33
		c-1.07,1.06-1.72,2-2.06,2.95c-0.2,0.57-0.27,1.15-0.21,1.71c0.09,0.62,0.3,1.15,0.6,1.59c0.72,1.09,1.79,1.87,2.65,2.41
		c1.09,0.65,2.21,1.19,3.31,1.62c2.31,0.89,4.71,1.61,7.14,2.14c4.2,0.92,8.77,1.55,14.82,2.06c4.46,0.38,9.22,0.62,14.98,0.77
		c7.91,0.25,16.37,0.43,24.68,0.09c11.43-0.47,25.76-2.52,41.45-5.93c38.23-8.3,53.29-12.84,58.48-17.67
		c-1.54,0.34-6.38,1.38-13,2.42c-4.36,1.98-8.9,3.53-12.36,4.65c-4.81,1.47-9.28,2.66-13.66,3.67c-2.29,0.52-4.62,1.01-6.91,1.47
		l-0.61,0.11c-2.08,0.39-6.38,0.94-6.38,0.94s4.81-1.22,6.84-1.72c2.23-0.51,4.54-1.08,6.85-1.68c4.32-1.11,8.94-2.34,13.54-3.82
		c3.09-0.95,6.05-1.97,8.83-3.04c-5.79,0.82-11.38,1.41-16.65,1.76c-1.68,0.76-3.36,1.42-4.64,1.91c-1.9,0.7-3.78,1.3-5.22,1.75
		c-3.58,1.09-7.16,2.01-10.64,2.74c-1.93,0.4-3.69,0.74-5.38,1.04l-0.1,0.01c-1.75,0.28-5.36,0.62-5.36,0.62s3.55-0.89,5.33-1.31
		c1.87-0.41,3.61-0.81,5.31-1.24c2.91-0.73,6.74-1.72,10.54-2.88c2.49-0.77,4.92-1.6,7.22-2.47c-3.53,0.18-6.92,0.24-10.09,0.2
		c-3.46,1.54-7.08,2.65-9.85,3.44c-3.26,0.89-6.71,1.63-10.25,2.2c-3.97,0.63-10.4,0.99-10.4,0.99s3.37-0.63,5.13-0.94
		c0.86-0.14,1.71-0.29,2.56-0.44c0.86-0.15,1.71-0.32,2.54-0.48c0.79-0.16,1.55-0.32,2.32-0.48l0.25-0.06
		c0.28-0.06,0.56-0.12,0.84-0.18c0.55-0.12,1.13-0.24,1.68-0.39l2.54-0.6l2.5-0.66c0.55-0.13,1.09-0.3,1.62-0.45
		c0.29-0.09,0.58-0.18,0.88-0.26l1.24-0.37l1.22-0.41c0.28-0.1,0.56-0.19,0.84-0.28c0.53-0.18,1.08-0.36,1.62-0.56
		c0.11-0.05,0.22-0.09,0.34-0.13c-2.05-0.07-4.05-0.19-5.96-0.35c-1.38-0.12-2.68-0.26-4.11-0.42c-0.23,0.11-0.47,0.21-0.7,0.31
		c-2.76,1.17-5.88,2.2-9.8,3.25c-3.38,0.89-6.77,1.63-10.05,2.21c-1.63,0.29-3.29,0.55-5.09,0.82l-0.51,0.07
		c-1.51,0.19-6.64,0.7-6.64,0.7s5.4-1.11,7.04-1.45c1.66-0.31,3.35-0.66,5.02-1.02c3.37-0.74,6.68-1.49,9.95-2.36
		c1.65-0.43,3.3-0.91,4.91-1.41c1.45-0.43,2.85-0.93,4.01-1.35c-2.54-0.32-5-0.71-7.34-1.13l-0.56,0.21
		c-0.79,0.31-1.61,0.62-2.42,0.88l-3.16,1.06l-3.19,0.94c-4.72,1.29-8.96,2.25-12.99,2.92c-5.02,0.84-13.22,1.33-13.22,1.33
		s4.29-0.68,6.54-1.06c0.73-0.1,1.46-0.23,2.17-0.35c0.37-0.06,0.74-0.13,1.11-0.19c0.65-0.11,1.32-0.24,1.98-0.37
		c0.42-0.08,0.84-0.16,1.26-0.24c4.71-0.93,8.91-1.94,12.85-3.07c2.44-0.65,4.98-1.44,7.75-2.43c-2.28-0.44-4.52-0.94-6.84-1.52
		c-2.46,0.99-5.16,1.92-8.25,2.86c-5.01,1.44-9.94,2.58-14.65,3.39c-5.51,0.95-14.93,1.65-14.93,1.65s5.08-0.82,7.39-1.22
		c2.42-0.38,4.9-0.82,7.37-1.32c5.5-1.09,10.25-2.24,14.52-3.53c2.42-0.71,4.73-1.47,6.89-2.26c-2.14-0.56-4.28-1.17-6.69-1.91
		c-3.17,1.21-6.58,2.35-10.13,3.37c-5.24,1.44-10.12,2.52-14.91,3.31c-2.49,0.42-5.03,0.78-7.54,1.08c-2.7,0.29-7.62,0.48-7.62,0.48
		s5.12-0.78,7.53-1.16c2.4-0.35,4.92-0.78,7.48-1.28c5.46-1.05,10.29-2.19,14.77-3.46c2.37-0.67,4.81-1.42,7.24-2.24
		c0.55-0.19,1.09-0.38,1.63-0.58c-0.83-0.26-1.62-0.51-2.35-0.75c-1.04-0.33-1.97-0.63-2.82-0.89c-3.85,1.5-8.14,2.82-13.14,4.04
		c-2.28,0.54-4.76,1.05-7.82,1.62c-3.07,0.55-5.58,0.94-7.89,1.23c-5.8,0.76-15.89,1.25-15.89,1.25s5.06-0.58,7.9-0.91
		c2.73-0.31,5.38-0.65,7.89-1.03c6-0.89,10.96-1.83,15.61-2.96c4.45-1.04,8.44-2.21,12.17-3.59c-2.06-0.58-3.24-0.75-3.93-0.57
		l-0.98,0.27l0.86-0.54C307.83,438.98,315.27,434.29,320.04,429.07z M212.55,450.68c-0.24,0.04-0.48,0.05-0.72,0.07
		c-0.11,0-0.23,0.01-0.35,0.02l-0.26,0.02c0.01,0.05,0.02,0.11,0.02,0.17c-0.01,0.81-1.15,1.69-2.39,1.85
		c-0.18,0.02-0.35,0.03-0.52,0.03c-1.08,0-2-0.44-2.18-1.1c-0.01-0.03-0.02-0.07-0.02-0.1c-0.44,0.12-0.91,0.28-1.48,0.49
		l-0.45,0.17l0.28-0.4c0.39-0.55,0.96-1.03,1.71-1.43c0.66-0.36,1.37-0.6,2.11-0.72c0.85-0.12,1.57-0.13,2.2-0.02
		c0.73,0.09,1.44,0.32,2.1,0.67l0.39,0.21L212.55,450.68z"/>
</g>
<g>
	<path class="st0" d="M182.11,523.78c-0.11-0.26-0.23-0.52-0.35-0.79c-0.13-0.28-0.26-0.55-0.39-0.81s-0.26-0.52-0.39-0.77
		s-0.25-0.48-0.37-0.69c-0.29-0.5-0.67-0.95-1.15-1.35c-0.48-0.39-1.02-0.72-1.62-0.97c-0.61-0.25-1.25-0.44-1.91-0.57
		c-0.66-0.13-1.35-0.19-2.05-0.19c-0.64,0-1.27,0.09-1.9,0.26c-0.61,0.18-1.19,0.44-1.72,0.78c-0.24,0.15-0.47,0.33-0.69,0.52
		c-0.23,0.2-0.44,0.41-0.63,0.63v-0.54c0.02-0.25,0.03-0.51,0.05-0.78c0.01-0.28,0.02-0.53,0.02-0.76c0-0.14-0.01-0.31-0.02-0.51
		s-0.02-0.37-0.03-0.51v-0.43l-1.07-0.17c-0.13,0.32-0.31,0.66-0.54,1.01c-0.23,0.35-0.48,0.71-0.76,1.08
		c-0.18,0.11-0.38,0.22-0.59,0.34c-0.22,0.12-0.44,0.23-0.67,0.35c-0.23,0.12-0.46,0.23-0.7,0.34c-0.24,0.1-0.47,0.2-0.69,0.3h0.02
		c-0.24,0.08-0.48,0.17-0.73,0.24c-0.26,0.08-0.51,0.15-0.77,0.21c-0.26,0.06-0.52,0.12-0.78,0.16c-0.26,0.04-0.51,0.08-0.75,0.1
		c-1.04,0.65-1.55,1.51-1.55,2.57c0.3,0,0.49-0.01,0.58-0.01c0.09,0,0.13-0.01,0.13-0.01c-0.01,0-0.04-0.01-0.09-0.01
		c-0.01,0-0.02,0-0.03-0.01l0.22-0.02c0.1,0.04,0.22,0.06,0.37,0.06c0.15,0.01,0.34,0.01,0.56,0.01c0.36,0,0.67,0.01,0.94,0.04
		c0.25,0.02,0.49,0.06,0.69,0.11c0.12,0.04,0.23,0.1,0.34,0.19c0.1,0.08,0.19,0.18,0.27,0.29v0.01c0.09,0.17,0.16,0.41,0.21,0.7
		c0.05,0.3,0.08,0.67,0.08,1.1v16.71c0,0.47-0.02,0.89-0.06,1.24c-0.04,0.35-0.09,0.65-0.16,0.9c-0.07,0.24-0.16,0.45-0.26,0.6
		c-0.1,0.16-0.22,0.28-0.34,0.35c-0.19,0.12-0.37,0.22-0.53,0.31c-0.16,0.08-0.31,0.17-0.44,0.24c-0.27,0.11-0.65,0.18-1.14,0.22
		h-0.08c-0.38,0.07-0.68,0.27-0.88,0.6c-0.2,0.33-0.31,0.79-0.31,1.38h1.46c0.13-0.01,0.26-0.01,0.38-0.01h3.52
		c2.68,0,4.8,0.03,6.34,0.07c1.54,0.05,2.5,0.11,2.86,0.17c0-0.99-0.47-1.72-1.4-2.19c-0.66-0.01-1.24-0.09-1.74-0.22
		c-0.48-0.12-0.87-0.29-1.14-0.49c-0.2-0.2-0.38-0.6-0.53-1.2c-0.08-0.35-0.15-0.8-0.19-1.35c-0.05-0.55-0.07-1.17-0.07-1.86v-3.61
		l0.13,0.15h-0.01c0.2,0.24,0.47,0.47,0.81,0.71c0.34,0.23,0.72,0.45,1.12,0.65c0.43,0.22,0.92,0.38,1.47,0.49
		c0.54,0.11,1.12,0.16,1.74,0.16c1.2-0.01,2.32-0.29,3.38-0.85c1.05-0.56,1.99-1.34,2.83-2.35c0.83-1.06,1.46-2.3,1.89-3.73
		c0.42-1.42,0.64-3.01,0.64-4.77c-0.03-0.65-0.12-1.3-0.26-1.95C182.53,524.99,182.34,524.37,182.11,523.78z M178.11,529.78
		c-0.06,0.55-0.13,1.09-0.23,1.61c-0.1,0.53-0.23,1.04-0.37,1.54s-0.3,0.97-0.48,1.41v-0.02c-0.18,0.37-0.38,0.72-0.62,1.03
		c-0.24,0.31-0.5,0.57-0.79,0.79c-0.3,0.22-0.61,0.39-0.95,0.52c-0.34,0.12-0.71,0.19-1.09,0.19c-0.04,0-0.08,0.01-0.14,0.02
		s-0.12,0.03-0.17,0.05c-0.72-0.04-1.35-0.25-1.89-0.63c-0.54-0.37-0.98-0.9-1.31-1.59v0.02c-0.36-0.82-0.64-1.75-0.84-2.81
		c-0.2-1.06-0.29-2.23-0.29-3.5c0-1.16,0.09-2.25,0.28-3.26c0.19-1.02,0.46-1.92,0.8-2.73c0.13-0.31,0.32-0.58,0.56-0.83
		c0.24-0.26,0.5-0.48,0.78-0.68c0.28-0.19,0.59-0.35,0.91-0.47c0.32-0.13,0.65-0.21,0.99-0.26c0.34,0.02,0.67,0.09,1.01,0.2
		c0.33,0.11,0.65,0.26,0.96,0.45c0.3,0.19,0.59,0.41,0.86,0.67c0.27,0.26,0.51,0.54,0.72,0.85c0.44,0.75,0.78,1.62,1.02,2.61
		c0.24,0.99,0.37,2.05,0.37,3.19C178.2,528.69,178.17,529.23,178.11,529.78z"/>
	<path class="st0" d="M205.98,530.43c-0.06,0.09-0.14,0.22-0.22,0.38c-0.09,0.15-0.19,0.33-0.29,0.53
		c-0.11,0.19-0.22,0.41-0.34,0.63c-0.1,0.21-0.22,0.42-0.32,0.63c-0.79,1.09-1.65,1.91-2.58,2.47c-0.94,0.55-1.97,0.83-3.09,0.83
		h-0.22c-0.02,0-0.04,0-0.04-0.01c-0.01,0-0.02,0-0.02,0h-0.3c-0.53,0-1.04-0.04-1.53-0.12c-0.49-0.08-0.95-0.19-1.38-0.34
		c-0.43-0.14-0.82-0.31-1.18-0.51c-0.36-0.19-0.68-0.41-0.96-0.64c-0.46-0.51-0.87-1.17-1.24-1.97c-0.36-0.8-0.63-1.72-0.8-2.76
		l13.82-0.35c0.41-1.15,0.62-2.14,0.62-2.97c0-0.95-0.22-1.83-0.65-2.66c-0.25-0.44-0.46-0.8-0.65-1.08
		c-0.18-0.28-0.36-0.46-0.52-0.54c-0.86-1.13-1.83-1.99-2.92-2.58c-1.1-0.58-2.32-0.88-3.67-0.9c-1.39,0-2.75,0.17-4.07,0.52
		c-0.67,0.18-1.29,0.42-1.86,0.73c-0.58,0.3-1.08,0.64-1.52,1.02c-0.57,0.51-1.07,1.07-1.52,1.69c-0.44,0.62-0.81,1.29-1.11,2
		c-0.61,1.44-0.93,2.95-0.97,4.53c0.07,2.07,0.54,3.93,1.42,5.56c0.42,0.77,0.91,1.46,1.46,2.05c0.56,0.59,1.2,1.12,1.94,1.58
		c0.7,0.45,1.48,0.79,2.31,1c0.84,0.22,1.73,0.33,2.69,0.33c1.4,0,2.76-0.22,4.1-0.66c0.64-0.24,1.28-0.53,1.89-0.88
		c0.62-0.35,1.21-0.75,1.77-1.2c0.54-0.45,1.05-0.95,1.52-1.51c0.47-0.56,0.88-1.16,1.23-1.81c0.06-0.22,0.12-0.41,0.16-0.57
		c0.04-0.16,0.06-0.28,0.07-0.37c0.04-0.21,0.08-0.39,0.09-0.56c0.02-0.17,0.03-0.32,0.03-0.46
		C207.13,530.77,206.74,530.43,205.98,530.43z M191.16,526.33c0.04-0.3,0.08-0.55,0.11-0.77c0.02-0.21,0.04-0.39,0.06-0.54
		c0.15-0.39,0.36-0.79,0.64-1.18c0.27-0.4,0.62-0.79,1.04-1.18c0.44-0.41,0.93-0.71,1.48-0.9c0.55-0.2,1.17-0.29,1.86-0.29
		c0.16-0.03,0.31-0.04,0.46-0.05c0.14,0,0.28-0.01,0.42-0.01c0.83,0,1.58,0.15,2.24,0.46c0.66,0.3,1.22,0.74,1.7,1.33
		c0.44,0.59,0.79,1.12,1.05,1.6c0.25,0.48,0.38,0.87,0.38,1.15c0,0.08-0.03,0.17-0.08,0.3c0,0.07-0.23,0.09-0.67,0.05L191.16,526.33
		z"/>
	<path class="st0" d="M228.63,530.43c-0.06,0.09-0.13,0.22-0.22,0.38c-0.09,0.15-0.18,0.33-0.29,0.53
		c-0.11,0.19-0.22,0.41-0.34,0.63c-0.1,0.21-0.22,0.42-0.32,0.63c-0.79,1.09-1.65,1.91-2.58,2.47c-0.93,0.55-1.96,0.83-3.09,0.83
		h-0.22c-0.02,0-0.03,0-0.04-0.01c-0.01,0-0.01,0-0.02,0h-0.3c-0.53,0-1.03-0.04-1.53-0.12c-0.49-0.08-0.95-0.19-1.38-0.34
		c-0.43-0.14-0.82-0.31-1.18-0.51c-0.36-0.19-0.68-0.41-0.96-0.64c-0.46-0.51-0.87-1.17-1.23-1.97c-0.37-0.8-0.64-1.72-0.81-2.76
		l13.82-0.35c0.41-1.15,0.62-2.14,0.62-2.97c0-0.95-0.22-1.83-0.65-2.66c-0.25-0.44-0.46-0.8-0.65-1.08
		c-0.18-0.28-0.35-0.46-0.52-0.54c-0.85-1.13-1.83-1.99-2.92-2.58c-1.09-0.58-2.32-0.88-3.67-0.9c-1.39,0-2.74,0.17-4.07,0.52
		c-0.67,0.18-1.29,0.42-1.86,0.73c-0.57,0.3-1.08,0.64-1.52,1.02c-0.57,0.51-1.07,1.07-1.52,1.69c-0.44,0.62-0.81,1.29-1.11,2
		c-0.61,1.44-0.93,2.95-0.97,4.53c0.07,2.07,0.55,3.93,1.42,5.56c0.42,0.77,0.91,1.46,1.46,2.05c0.56,0.59,1.21,1.12,1.94,1.58
		c0.71,0.45,1.48,0.79,2.32,1c0.83,0.22,1.73,0.33,2.68,0.33c1.4,0,2.77-0.22,4.1-0.66c0.65-0.24,1.28-0.53,1.89-0.88
		c0.62-0.35,1.21-0.75,1.77-1.2c0.55-0.45,1.05-0.95,1.53-1.51c0.47-0.56,0.87-1.16,1.22-1.81c0.07-0.22,0.12-0.41,0.16-0.57
		c0.04-0.16,0.06-0.28,0.07-0.37c0.05-0.21,0.08-0.39,0.1-0.56c0.01-0.17,0.02-0.32,0.02-0.46
		C229.78,530.77,229.4,530.43,228.63,530.43z M213.81,526.33c0.05-0.3,0.08-0.55,0.11-0.77c0.03-0.21,0.05-0.39,0.06-0.54
		c0.15-0.39,0.37-0.79,0.64-1.18c0.27-0.4,0.62-0.79,1.04-1.18c0.45-0.41,0.94-0.71,1.48-0.9c0.56-0.2,1.17-0.29,1.86-0.29
		c0.16-0.03,0.31-0.04,0.46-0.05c0.15,0,0.29-0.01,0.42-0.01c0.83,0,1.58,0.15,2.24,0.46c0.66,0.3,1.23,0.74,1.7,1.33
		c0.44,0.59,0.8,1.12,1.05,1.6s0.38,0.87,0.38,1.15c0,0.08-0.03,0.17-0.08,0.3c0,0.07-0.22,0.09-0.67,0.05L213.81,526.33z"/>
	<path class="st0" d="M247.59,519.05c-0.15-0.39-0.42-0.7-0.79-0.93s-0.84-0.36-1.41-0.39c-0.28,0-0.56,0.03-0.85,0.11
		c-0.29,0.07-0.59,0.17-0.88,0.3c-0.3,0.13-0.59,0.28-0.88,0.45c-0.29,0.18-0.57,0.37-0.84,0.57c-0.11,0.09-0.23,0.19-0.36,0.3
		c-0.13,0.11-0.27,0.23-0.42,0.35c-0.15,0.12-0.29,0.25-0.44,0.38c-0.15,0.14-0.3,0.27-0.44,0.4l-0.08,0.05v-1.47
		c-0.02,0-0.07-2.97-0.07-3.75c-0.69,0.94-1.2,1.64-1.53,2.09c-0.32,0.45-0.48,0.69-0.48,0.71c-0.85,0.54-1.91,1.09-3.18,1.66
		s-2.78,1.17-4.51,1.81l0.17,1.24l2.39,0.01c0.63,0,1.12,0.16,1.46,0.49c0.31,0.31,0.47,1.07,0.47,2.28v6.48
		c0,0.92-0.04,1.66-0.13,2.24c-0.09,0.58-0.22,0.98-0.38,1.21c-0.27,0.36-0.75,0.58-1.44,0.67c-0.09-0.04-0.21-0.06-0.35-0.07
		s-0.3-0.01-0.48-0.01c-0.91,0.62-1.49,1.51-1.74,2.66c1.62-0.02,3.15-0.05,4.58-0.07c1.43-0.02,2.73-0.04,3.9-0.06
		c1.17-0.01,2.19-0.02,3.07-0.04c0.88-0.01,1.58-0.01,2.1-0.01c0.17,0,0.38,0,0.64,0.01s0.52,0.02,0.77,0.03
		c0.26,0.01,0.48,0.02,0.68,0.03c0.19,0.01,0.32,0.02,0.37,0.02c-0.26-0.54-0.62-0.99-1.07-1.37c-0.46-0.38-1.02-0.67-1.69-0.87
		c-1.25,0-2.08-0.13-2.48-0.39v0.02c-0.17-0.12-0.32-0.3-0.45-0.54c-0.13-0.23-0.24-0.52-0.33-0.87c-0.09-0.42-0.15-1-0.21-1.72
		c-0.05-0.72-0.08-1.61-0.08-2.64v-6.78c0.27-0.28,0.51-0.52,0.72-0.71c0.21-0.19,0.37-0.34,0.49-0.43l0.01-0.01
		c0.12-0.1,0.26-0.19,0.45-0.27c0.18-0.08,0.41-0.15,0.69-0.22c0.2-0.14,0.37-0.24,0.51-0.33c0.14-0.08,0.25-0.13,0.33-0.17
		c0.01,0.06,0.03,0.13,0.05,0.22c0.01,0.09,0.03,0.21,0.04,0.36c0.11,0.81,0.41,1.38,0.91,1.69c0.2,0.12,0.41,0.22,0.63,0.27
		c0.21,0.06,0.45,0.09,0.7,0.09c0.22,0.05,0.44,0,0.67-0.13c0.23-0.13,0.49-0.34,0.76-0.64c0.26-0.3,0.46-0.63,0.6-0.97
		c0.13-0.35,0.2-0.73,0.2-1.14c0-0.41-0.03-0.8-0.1-1.18C247.79,519.7,247.7,519.36,247.59,519.05z"/>
	<path class="st0" d="M261.38,536.23c-0.43,0-0.82-0.03-1.17-0.1c-0.34-0.07-0.63-0.16-0.85-0.27c-0.15-0.11-0.3-0.26-0.44-0.44
		c-0.15-0.18-0.25-0.37-0.31-0.58c-0.18-0.64-0.27-1.49-0.27-2.56v-23.76c0-0.01,0.01-0.02,0.01-0.02c0-0.01,0-0.01,0-0.02v-0.33
		c0-0.35-0.05-0.88-0.15-1.59c-0.1-0.72-0.24-1.58-0.44-2.59c-0.3,0.71-0.56,1.28-0.79,1.71c-0.23,0.43-0.43,0.71-0.6,0.84
		c-0.18,0.17-0.44,0.35-0.77,0.56c-0.33,0.2-0.72,0.42-1.17,0.64c-0.21,0.11-0.49,0.21-0.84,0.31c-0.34,0.09-0.74,0.17-1.18,0.24
		c-0.45,0.08-0.93,0.14-1.45,0.19c-0.53,0.06-1.07,0.1-1.64,0.13c-0.26,0.02-0.49,0.07-0.71,0.16c-0.22,0.09-0.4,0.22-0.56,0.38
		c-0.16,0.17-0.28,0.37-0.37,0.61c-0.08,0.24-0.13,0.52-0.13,0.85l3.38,0.28c0.36,0.08,0.68,0.19,0.94,0.32
		c0.28,0.15,0.5,0.33,0.67,0.55c0.35,0.42,0.52,1.47,0.52,3.13v17.16c0,0.72-0.02,1.35-0.08,1.88c-0.05,0.54-0.12,0.96-0.22,1.28
		c-0.13,0.43-0.33,0.7-0.57,0.82c-0.21,0.07-0.48,0.12-0.82,0.16c-0.34,0.04-0.74,0.06-1.2,0.06c-0.46,0.23-0.84,0.56-1.14,0.98
		c-0.3,0.41-0.52,0.92-0.68,1.52c1.08,0.01,2.14,0.03,3.17,0.04c1.03,0.01,2,0.02,2.91,0.03c0.91,0,1.74,0.01,2.5,0.01
		c0.76,0.01,1.41,0.01,1.95,0.01c1.27,0,2.23-0.07,2.88-0.19c0.65-0.13,1-0.31,1.04-0.55c0-0.39-0.12-0.74-0.36-1.05
		S261.85,536.46,261.38,536.23z"/>
	<path class="st0" d="M296.92,523.78c-0.11-0.26-0.23-0.52-0.35-0.79c-0.13-0.28-0.26-0.55-0.39-0.81s-0.26-0.52-0.39-0.77
		s-0.25-0.48-0.37-0.69c-0.29-0.5-0.67-0.95-1.15-1.35c-0.48-0.39-1.02-0.72-1.62-0.97c-0.61-0.25-1.24-0.44-1.91-0.57
		c-0.66-0.13-1.35-0.19-2.05-0.19c-0.64,0-1.27,0.09-1.89,0.26c-0.62,0.18-1.2,0.44-1.73,0.78c-0.24,0.15-0.47,0.33-0.69,0.52
		c-0.23,0.2-0.44,0.41-0.63,0.63v-0.54c0.02-0.25,0.03-0.51,0.05-0.78c0.01-0.28,0.02-0.53,0.02-0.76c0-0.14-0.01-0.31-0.02-0.51
		s-0.02-0.37-0.03-0.51v-0.43l-1.07-0.17c-0.13,0.32-0.31,0.66-0.54,1.01c-0.23,0.35-0.48,0.71-0.76,1.08
		c-0.18,0.11-0.38,0.22-0.59,0.34c-0.22,0.12-0.44,0.23-0.67,0.35c-0.23,0.12-0.46,0.23-0.7,0.34c-0.24,0.1-0.47,0.2-0.69,0.3h0.02
		c-0.24,0.08-0.48,0.17-0.73,0.24c-0.26,0.08-0.51,0.15-0.77,0.21s-0.52,0.12-0.78,0.16c-0.26,0.04-0.51,0.08-0.75,0.1
		c-1.04,0.65-1.55,1.51-1.55,2.57c0.3,0,0.49-0.01,0.58-0.01c0.09,0,0.13-0.01,0.13-0.01c-0.01,0-0.04-0.01-0.09-0.01
		c-0.01,0-0.02,0-0.03-0.01l0.22-0.02c0.1,0.04,0.22,0.06,0.37,0.06c0.15,0.01,0.34,0.01,0.57,0.01c0.35,0,0.66,0.01,0.93,0.04
		c0.25,0.02,0.49,0.06,0.69,0.11c0.12,0.04,0.23,0.1,0.34,0.19c0.1,0.08,0.19,0.18,0.27,0.29v0.01c0.09,0.17,0.16,0.41,0.21,0.7
		c0.05,0.3,0.08,0.67,0.08,1.1v16.71c0,0.47-0.02,0.89-0.06,1.24c-0.03,0.35-0.09,0.65-0.16,0.9c-0.07,0.24-0.15,0.45-0.26,0.6
		c-0.1,0.16-0.22,0.28-0.34,0.35c-0.19,0.12-0.36,0.22-0.53,0.31c-0.16,0.08-0.31,0.17-0.44,0.24c-0.27,0.11-0.65,0.18-1.14,0.22
		h-0.08c-0.38,0.07-0.67,0.27-0.88,0.6c-0.2,0.33-0.3,0.79-0.3,1.38h1.45c0.13-0.01,0.26-0.01,0.38-0.01h3.52
		c2.68,0,4.8,0.03,6.34,0.07c1.55,0.05,2.5,0.11,2.86,0.17c0-0.99-0.47-1.72-1.4-2.19c-0.66-0.01-1.23-0.09-1.74-0.22
		c-0.48-0.12-0.87-0.29-1.14-0.49c-0.2-0.2-0.38-0.6-0.53-1.2c-0.08-0.35-0.15-0.8-0.19-1.35c-0.05-0.55-0.07-1.17-0.07-1.86v-3.61
		l0.13,0.15h-0.01c0.2,0.24,0.47,0.47,0.81,0.71c0.35,0.23,0.72,0.45,1.12,0.65c0.43,0.22,0.92,0.38,1.47,0.49
		c0.54,0.11,1.12,0.16,1.74,0.16c1.2-0.01,2.32-0.29,3.38-0.85c1.05-0.56,1.99-1.34,2.83-2.35c0.83-1.06,1.46-2.3,1.89-3.73
		c0.42-1.42,0.64-3.01,0.64-4.77c-0.03-0.65-0.12-1.3-0.26-1.95C297.34,524.99,297.15,524.37,296.92,523.78z M292.92,529.78
		c-0.05,0.55-0.13,1.09-0.23,1.61c-0.1,0.53-0.22,1.04-0.37,1.54c-0.14,0.5-0.3,0.97-0.48,1.41v-0.02
		c-0.18,0.37-0.38,0.72-0.62,1.03c-0.23,0.31-0.5,0.57-0.79,0.79c-0.3,0.22-0.61,0.39-0.95,0.52c-0.34,0.12-0.71,0.19-1.09,0.19
		c-0.04,0-0.08,0.01-0.14,0.02s-0.12,0.03-0.17,0.05c-0.72-0.04-1.35-0.25-1.89-0.63c-0.54-0.37-0.98-0.9-1.31-1.59v0.02
		c-0.36-0.82-0.64-1.75-0.84-2.81c-0.19-1.06-0.29-2.23-0.29-3.5c0-1.16,0.09-2.25,0.28-3.26c0.19-1.02,0.46-1.92,0.8-2.73
		c0.13-0.31,0.33-0.58,0.56-0.83c0.24-0.26,0.5-0.48,0.78-0.68c0.29-0.19,0.59-0.35,0.91-0.47c0.33-0.13,0.65-0.21,0.99-0.26
		c0.34,0.02,0.67,0.09,1.01,0.2c0.33,0.11,0.65,0.26,0.96,0.45c0.3,0.19,0.59,0.41,0.86,0.67c0.27,0.26,0.51,0.54,0.72,0.85
		c0.44,0.75,0.78,1.62,1.02,2.61c0.25,0.99,0.37,2.05,0.37,3.19C293.01,528.69,292.98,529.23,292.92,529.78z"/>
	<path class="st0" d="M321.16,533.07c-0.23,0.7-0.44,1.25-0.63,1.67c-0.19,0.42-0.35,0.72-0.46,0.89c-0.05,0.07-0.14,0.13-0.25,0.18
		s-0.23,0.08-0.37,0.08c-0.64,0-0.96-0.71-0.96-2.14v-9.83c0-4.13-2.72-6.19-8.16-6.19c-0.81,0-1.57,0.06-2.29,0.19
		c-0.72,0.14-1.4,0.35-2.07,0.66c-0.63,0.28-1.2,0.61-1.72,0.99c-0.52,0.39-0.97,0.8-1.34,1.24c-0.39,0.47-0.7,0.96-0.91,1.46
		c-0.21,0.49-0.33,1-0.34,1.52c0.16,1.72,1.2,2.71,3.11,2.96c0.58-0.03,0.98-0.2,1.21-0.49c0.23-0.28,0.32-0.67,0.25-1.14
		c-0.03-0.17-0.06-0.37-0.08-0.59c-0.02-0.23-0.03-0.47-0.04-0.73c0.4-0.71,0.72-1.27,0.97-1.68c0.25-0.4,0.46-0.68,0.61-0.83
		c0.28-0.32,0.65-0.56,1.12-0.72c0.53-0.21,1.06-0.31,1.59-0.31c0.44,0,0.83,0.07,1.16,0.22c0.34,0.15,0.64,0.36,0.91,0.66
		c0.51,0.58,0.77,1.37,0.77,2.36v2.43c-1.67,0.12-3.2,0.33-4.58,0.63c-1.38,0.3-2.59,0.73-3.64,1.28c-0.59,0.33-1.12,0.71-1.59,1.15
		c-0.47,0.44-0.88,0.94-1.21,1.49c-0.33,0.56-0.58,1.17-0.76,1.85c-0.18,0.68-0.27,1.41-0.27,2.21c0.05,0.73,0.24,1.39,0.57,1.99
		c0.33,0.59,0.76,1.11,1.31,1.58c0.57,0.41,1.18,0.73,1.83,0.96c0.66,0.22,1.36,0.33,2.1,0.33c0.79,0,1.57-0.12,2.34-0.35
		c0.77-0.24,1.52-0.59,2.24-1.07c0.69-0.46,1.3-1.04,1.82-1.74c0.28,1.05,0.8,1.83,1.56,2.36c0.76,0.53,1.76,0.8,3.01,0.8
		c0.56,0,1.1-0.1,1.61-0.31c0.52-0.21,1.02-0.51,1.49-0.91c0.49-0.41,0.86-0.89,1.11-1.43c0.26-0.54,0.4-1.1,0.41-1.68
		c0.01-0.06,0.01-0.13,0.01-0.22v-0.2C322.6,533.6,322.12,533.07,321.16,533.07z M312.9,532.54c-0.24,0.68-0.56,1.26-0.95,1.74
		c-0.39,0.47-0.84,0.84-1.34,1.11c-0.49,0.26-0.99,0.4-1.49,0.42c-0.09,0.01-0.18,0.01-0.25,0.01h-0.22c-0.47,0-0.89-0.04-1.24-0.13
		c-0.35-0.1-0.63-0.21-0.82-0.36l0.03,0.01c-0.22-0.2-0.41-0.43-0.57-0.68c-0.16-0.25-0.27-0.51-0.32-0.79
		c-0.02-0.06-0.04-0.13-0.06-0.22c-0.01-0.1-0.03-0.19-0.04-0.29c-0.01-0.01-0.01-0.02-0.01-0.04c0,0,0-0.01-0.01-0.01v-0.11
		l-0.02-0.1v-0.08c0.29-0.53,0.58-1.01,0.88-1.43c0.3-0.42,0.6-0.81,0.9-1.15c0.3-0.34,0.65-0.62,1.08-0.88s0.87-0.49,1.35-0.67
		c0.54-0.17,1.09-0.31,1.65-0.39c0.57-0.09,1.13-0.13,1.7-0.13h0.07l0.02,1.88C313.25,531.1,313.14,531.86,312.9,532.54z"/>
	<path class="st0" d="M342.15,532.27c-0.18,0-0.4,0.1-0.67,0.31c-0.27,0.21-0.55,0.49-0.85,0.84c-0.39,0.38-0.82,0.73-1.29,1.05
		c-0.47,0.33-0.96,0.6-1.47,0.84c-0.51,0.23-1.03,0.42-1.56,0.57c-0.52,0.14-1.04,0.23-1.54,0.26c-0.24-0.03-0.49-0.08-0.76-0.16
		c-0.26-0.07-0.53-0.17-0.8-0.27c-0.27-0.11-0.52-0.23-0.77-0.37c-0.24-0.14-0.47-0.28-0.67-0.44c-0.4-0.36-0.81-0.81-1.19-1.34
		c-0.4-0.53-0.74-1.09-1.03-1.67c-0.27-0.6-0.48-1.22-0.64-1.9c-0.17-0.67-0.27-1.33-0.3-1.95c0-0.08-0.01-0.17-0.02-0.25
		c-0.01-0.08-0.03-0.17-0.05-0.25c0.02-0.68,0.09-1.34,0.21-1.99c0.11-0.65,0.26-1.24,0.45-1.79c0.19-0.55,0.43-1.03,0.72-1.47
		c0.28-0.43,0.61-0.8,0.97-1.11c0.72-0.61,1.55-0.92,2.49-0.92c0.38,0,0.81,0.05,1.3,0.16c0.48,0.11,1.02,0.26,1.61,0.47v-0.02
		c0.97,0.36,1.53,0.7,1.7,1c0,0.09-0.67,0.42-2.03,0.99c0.03,0.47,0.11,0.9,0.26,1.29c0.15,0.38,0.34,0.71,0.59,0.99
		c0.24,0.28,0.52,0.5,0.85,0.66c0.32,0.17,0.67,0.27,1.05,0.29c0.44-0.02,0.84-0.12,1.2-0.3c0.35-0.18,0.66-0.41,0.93-0.7
		c0.56-0.66,0.84-1.58,0.84-2.75c-0.03-0.48-0.15-0.93-0.36-1.36s-0.52-0.83-0.92-1.19c-0.36-0.32-0.79-0.62-1.28-0.88
		c-0.49-0.27-1.02-0.49-1.57-0.67c-0.57-0.17-1.17-0.29-1.8-0.38s-1.27-0.13-1.94-0.13c-1.02,0.01-1.98,0.15-2.87,0.41
		c-0.89,0.27-1.73,0.64-2.51,1.13c-0.78,0.51-1.48,1.09-2.09,1.75c-0.6,0.65-1.13,1.38-1.58,2.18c-0.88,1.58-1.39,3.23-1.55,4.97
		c-0.03,0.28-0.04,0.52-0.05,0.73c-0.01,0.21-0.02,0.41-0.02,0.58c0,1.79,0.36,3.43,1.07,4.93c0.36,0.77,0.82,1.46,1.39,2.08
		c0.56,0.61,1.22,1.16,1.98,1.63c0.77,0.46,1.62,0.8,2.54,1.02c0.93,0.22,1.94,0.34,3.04,0.34c0.57,0,1.16-0.05,1.78-0.13
		s1.24-0.2,1.86-0.35c0.65-0.15,1.31-0.45,1.98-0.89c0.67-0.45,1.29-0.99,1.87-1.61c0.39-0.43,0.73-0.8,1-1.1
		c0.27-0.31,0.48-0.55,0.61-0.73l0.08-0.01c0.38-0.75,0.57-1.28,0.57-1.58c0-0.28-0.06-0.48-0.18-0.61S342.42,532.27,342.15,532.27z
		"/>
	<path class="st0" d="M368.08,536.14c-0.22,0-0.47-0.05-0.75-0.17c-0.28-0.11-0.54-0.26-0.8-0.44c-0.28-0.2-0.56-0.46-0.86-0.79
		c-0.3-0.32-0.55-0.65-0.78-1l-5.4-8.38c0.92-0.72,1.76-1.36,2.52-1.9c0.77-0.55,1.46-1,2.08-1.37c1.29-0.76,2.37-1.16,3.25-1.2
		c0.16,0,0.34-0.04,0.54-0.1c0.2-0.07,0.41-0.16,0.63-0.29c0.28-0.17,0.51-0.42,0.68-0.75c0.17-0.33,0.25-0.71,0.25-1.12l-5.44,0.01
		c-1.1,0-2.15,0.01-3.14,0.01c-0.99,0.01-1.89,0.01-2.68,0.01c-0.8,0.01-1.48,0.01-2.05,0.01h-1.24c0.19,0.63,0.48,1.11,0.88,1.44
		c0.4,0.33,0.91,0.53,1.52,0.61l1.17,0.25c0.56,0,0.84,0.15,0.84,0.43c0,0.37-0.13,0.76-0.41,1.2c-0.28,0.43-0.7,0.89-1.27,1.39
		c-0.49,0.52-0.98,0.98-1.48,1.39c-0.5,0.4-1.01,0.76-1.54,1.07l-0.34,0.24c-0.16,0.12-0.33,0.25-0.51,0.37s-0.35,0.25-0.53,0.37
		c-0.03,0.03-0.07,0.06-0.1,0.09c-0.04,0.02-0.07,0.05-0.11,0.09v-18.95c-0.05-0.37-0.1-0.78-0.14-1.25c-0.04-0.46-0.07-1-0.1-1.59
		c-0.41,0-0.76,0.1-1.04,0.3c-0.28,0.21-0.5,0.51-0.67,0.9c-0.16,0.36-0.26,0.56-0.31,0.62h-0.01v0.01
		c-0.35,0.23-0.77,0.43-1.27,0.58c-0.51,0.16-1.04,0.27-1.61,0.34c-0.61,0.06-1.24,0.1-1.9,0.14c-0.66,0.04-1.3,0.06-1.93,0.06v0.16
		c-0.04-0.01-0.09-0.01-0.16-0.01h-0.16c-0.17,0-0.34,0.01-0.51,0.03l-0.17,0.03l-0.16,0.03c-0.06,0.01-0.13,0.02-0.21,0.04
		c-0.08,0.01-0.22,0.02-0.4,0.03l-0.01,1.33c1.3,0.25,2.32,0.46,3.05,0.63c0.74,0.16,1.21,0.29,1.41,0.38
		c0.31,0.13,0.54,0.52,0.7,1.16c0.1,0.43,0.17,0.99,0.23,1.71c0.06,0.71,0.08,1.56,0.08,2.54v15.54c0,0.81-0.04,1.49-0.13,2.03
		c-0.08,0.54-0.21,0.94-0.39,1.2c-0.14,0.19-0.32,0.35-0.56,0.46c-0.23,0.12-0.5,0.2-0.82,0.25c-0.12-0.04-0.28-0.06-0.49-0.07
		c-0.2-0.01-0.43-0.01-0.69-0.01c-0.38,0.23-0.71,0.56-0.98,0.97c-0.26,0.41-0.47,0.91-0.62,1.47c1.31,0.01,2.59,0.02,3.84,0.03
		c1.26,0,2.44,0.01,3.57,0.01c1.12,0.01,2.16,0.01,3.1,0.01c0.95,0.01,1.77,0.01,2.45,0.01c1.01,0,1.99,0,2.95-0.01h10.01
		c0.41,0.01,0.75,0.01,1.04,0.02h0.57C370.57,537.44,369.74,536.57,368.08,536.14z M359.16,535.64h-0.09
		c-0.13,0-0.41,0.14-0.84,0.42c-0.05,0.04-0.11,0.08-0.17,0.11l-0.1-0.04l0.02,0.09c-0.39,0.27-0.85,0.58-1.4,0.96l-0.14,0.09
		c-0.07-0.17-0.17-0.34-0.29-0.49c-0.12-0.15-0.26-0.29-0.43-0.44l-0.18-0.02c-0.78,0-1.36-0.16-1.73-0.47
		c-0.14-0.14-0.26-0.31-0.38-0.54c-0.12-0.22-0.2-0.44-0.26-0.65c-0.05-0.28-0.09-0.61-0.12-0.97c-0.02-0.37-0.04-0.75-0.04-1.16
		v-2.09l0.74-0.5c0.18-0.12,0.35-0.24,0.53-0.36c0.18-0.12,0.37-0.25,0.55-0.37c0.08-0.05,0.14-0.1,0.22-0.15s0.16-0.11,0.23-0.17
		l2.15,3.22c1.06,1.57,1.67,2.75,1.82,3.54C359.22,535.65,359.19,535.65,359.16,535.64z"/>
	<path class="st0" d="M389.82,533.07c-0.23,0.7-0.44,1.25-0.63,1.67c-0.2,0.42-0.35,0.72-0.46,0.89c-0.06,0.07-0.14,0.13-0.25,0.18
		c-0.11,0.05-0.23,0.08-0.37,0.08c-0.64,0-0.97-0.71-0.97-2.14v-9.83c0-4.13-2.71-6.19-8.15-6.19c-0.81,0-1.57,0.06-2.29,0.19
		c-0.72,0.14-1.41,0.35-2.07,0.66c-0.63,0.28-1.2,0.61-1.72,0.99c-0.52,0.39-0.97,0.8-1.34,1.24c-0.4,0.47-0.7,0.96-0.91,1.46
		c-0.22,0.49-0.33,1-0.34,1.52c0.16,1.72,1.19,2.71,3.11,2.96c0.58-0.03,0.98-0.2,1.21-0.49c0.23-0.28,0.31-0.67,0.25-1.14
		c-0.04-0.17-0.06-0.37-0.08-0.59c-0.02-0.23-0.04-0.47-0.04-0.73c0.4-0.71,0.72-1.27,0.97-1.68c0.25-0.4,0.45-0.68,0.61-0.83
		c0.28-0.32,0.65-0.56,1.12-0.72c0.53-0.21,1.06-0.31,1.59-0.31c0.44,0,0.82,0.07,1.16,0.22c0.34,0.15,0.63,0.36,0.91,0.66
		c0.51,0.58,0.77,1.37,0.77,2.36v2.43c-1.68,0.12-3.2,0.33-4.58,0.63s-2.6,0.73-3.64,1.28c-0.59,0.33-1.12,0.71-1.59,1.15
		c-0.48,0.44-0.88,0.94-1.21,1.49c-0.33,0.56-0.58,1.17-0.76,1.85c-0.18,0.68-0.27,1.41-0.27,2.21c0.05,0.73,0.24,1.39,0.57,1.99
		c0.32,0.59,0.76,1.11,1.31,1.58c0.56,0.41,1.17,0.73,1.83,0.96c0.66,0.22,1.36,0.33,2.1,0.33c0.78,0,1.56-0.12,2.34-0.35
		c0.77-0.24,1.52-0.59,2.24-1.07c0.69-0.46,1.29-1.04,1.82-1.74c0.28,1.05,0.8,1.83,1.56,2.36c0.76,0.53,1.76,0.8,3.01,0.8
		c0.56,0,1.09-0.1,1.61-0.31c0.52-0.21,1.01-0.51,1.49-0.91c0.48-0.41,0.85-0.89,1.11-1.43c0.26-0.54,0.39-1.1,0.41-1.68
		c0-0.06,0.01-0.13,0.01-0.22v-0.2C391.26,533.6,390.78,533.07,389.82,533.07z M381.56,532.54c-0.24,0.68-0.56,1.26-0.95,1.74
		c-0.4,0.47-0.84,0.84-1.34,1.11c-0.5,0.26-0.99,0.4-1.49,0.42c-0.1,0.01-0.18,0.01-0.25,0.01h-0.22c-0.48,0-0.89-0.04-1.24-0.13
		c-0.36-0.1-0.63-0.21-0.82-0.36l0.03,0.01c-0.22-0.2-0.41-0.43-0.57-0.68c-0.16-0.25-0.27-0.51-0.32-0.79
		c-0.02-0.06-0.04-0.13-0.06-0.22c-0.02-0.1-0.03-0.19-0.04-0.29c-0.01-0.01-0.01-0.02-0.01-0.04l-0.01-0.01v-0.11l-0.02-0.1v-0.08
		c0.28-0.53,0.58-1.01,0.88-1.43c0.3-0.42,0.6-0.81,0.9-1.15c0.3-0.34,0.65-0.62,1.08-0.88c0.42-0.26,0.87-0.49,1.35-0.67
		c0.54-0.17,1.09-0.31,1.65-0.39c0.56-0.09,1.13-0.13,1.7-0.13h0.07l0.02,1.88C381.91,531.1,381.8,531.86,381.56,532.54z"/>
	<path class="st0" d="M412.89,520.58c0.56-0.61,0.85-1.32,0.85-2.14c0-0.44-0.09-0.84-0.26-1.2c-0.17-0.35-0.41-0.67-0.72-0.95
		c-0.59-0.49-1.28-0.74-2.08-0.74c-1.02,0-2.12,0.36-3.3,1.06c-0.48,0.28-0.9,0.55-1.28,0.83c-0.38,0.28-0.71,0.56-0.99,0.83
		c-0.52-0.16-1.03-0.28-1.54-0.36c-0.52-0.07-1.06-0.11-1.63-0.11c-0.74,0-1.46,0.09-2.17,0.26c-0.7,0.17-1.38,0.43-2.03,0.76
		c-0.63,0.33-1.22,0.75-1.78,1.24c-0.55,0.5-1.03,1.06-1.43,1.68c-0.42,0.64-0.75,1.32-0.99,2.06c-0.25,0.73-0.4,1.49-0.45,2.28
		c0.01,0.8,0.12,1.56,0.33,2.29c0.21,0.73,0.51,1.43,0.89,2.1c0.19,0.35,0.41,0.67,0.65,0.96c0.25,0.29,0.5,0.55,0.77,0.77
		c-0.4,0.19-0.78,0.43-1.14,0.71c-0.48,0.38-0.86,0.83-1.16,1.32c-0.3,0.5-0.49,1.04-0.56,1.63c0,0.55,0.05,1.07,0.14,1.54
		c0.1,0.48,0.25,0.91,0.46,1.3c0.5,0.9,1.41,1.34,2.73,1.34h0.78c0.48,0,0.99,0,1.53,0.01c0.55,0,1.14,0.02,1.8,0.04
		c1.09,0.03,2.11,0.06,3.06,0.1c0.94,0.04,1.73,0.09,2.38,0.15c0.24,0.04,0.49,0.1,0.74,0.17c0.25,0.08,0.49,0.17,0.71,0.28
		c0.22,0.1,0.42,0.23,0.6,0.36c0.19,0.14,0.34,0.29,0.47,0.45c0.29,0.38,0.51,0.75,0.64,1.12c0.14,0.36,0.21,0.73,0.22,1.1
		c-0.04,0.6-0.31,1.13-0.82,1.6c-0.26,0.26-0.57,0.49-0.95,0.69c-0.37,0.2-0.81,0.37-1.3,0.53c-0.5,0.16-1.03,0.28-1.59,0.35
		c-0.55,0.08-1.14,0.12-1.74,0.12c-1.42,0-2.9-0.23-4.46-0.69c-0.96-0.21-1.69-0.52-2.19-0.91c-0.5-0.4-0.79-0.88-0.86-1.44
		c0.08-0.18,0.18-0.37,0.29-0.56c0.12-0.19,0.24-0.37,0.38-0.56c0.11-0.15,0.29-0.28,0.52-0.41c0.25-0.14,0.55-0.26,0.92-0.37
		l-0.12-1.32c-0.49,0-1.04-0.06-1.66-0.17c-1.21,0.06-2.15,0.36-2.83,0.91c-0.34,0.29-0.61,0.64-0.82,1.03
		c-0.2,0.39-0.3,0.81-0.3,1.28c0.01,0.5,0.13,0.99,0.36,1.47c0.23,0.47,0.55,0.94,0.95,1.4c0.41,0.44,0.91,0.83,1.48,1.19
		c0.58,0.35,1.25,0.66,2.02,0.93c0.74,0.25,1.57,0.44,2.48,0.57c0.91,0.13,1.93,0.19,3.05,0.19c1.38,0,2.7-0.14,3.94-0.41
		c1.25-0.28,2.43-0.69,3.57-1.22c2.45-1.18,3.68-3.44,3.68-6.77c-0.02-1.25-0.41-2.28-1.16-3.1c-0.34-0.38-0.73-0.71-1.18-1
		c-0.44-0.28-0.92-0.51-1.42-0.68c-0.97-0.32-2.03-0.54-3.17-0.66c-1.15-0.11-2.41-0.17-3.78-0.17h-1.9
		c-0.12-0.02-0.29-0.04-0.51-0.06c-0.22-0.01-0.48-0.02-0.77-0.03c-0.28-0.01-0.54-0.02-0.8-0.03c-0.25-0.02-0.49-0.04-0.7-0.08
		c-0.15-0.03-0.29-0.08-0.44-0.14c-0.14-0.07-0.26-0.14-0.35-0.22c-0.06-0.07-0.11-0.15-0.15-0.24c-0.03-0.1-0.05-0.21-0.05-0.33
		c0.02-0.02,0.04-0.04,0.08-0.07c0.02-0.02,0.06-0.05,0.1-0.08s0.08-0.07,0.14-0.12c0.13-0.1,0.29-0.17,0.48-0.22
		c0.19-0.06,0.41-0.08,0.65-0.08c0.4,0,1.01,0.07,1.83,0.23c0.41,0.07,0.78,0.12,1.1,0.16c0.33,0.03,0.61,0.05,0.87,0.06
		c0.68-0.01,1.39-0.1,2.12-0.28s1.42-0.42,2.07-0.72c0.65-0.32,1.27-0.73,1.84-1.22c0.58-0.49,1.06-1.03,1.45-1.61
		c0.4-0.62,0.72-1.31,0.94-2.07c0.23-0.76,0.34-1.54,0.34-2.36s-0.1-1.61-0.29-2.35c-0.19-0.75-0.47-1.46-0.83-2.12l-0.02-0.02
		c0.84-0.09,1.53-0.23,2.08-0.4C412.24,521.06,412.64,520.84,412.89,520.58z M406.25,528.47c-0.22,0.73-0.54,1.36-0.96,1.89
		c-0.8,1.02-1.9,1.53-3.28,1.53c-0.38,0-0.75-0.05-1.09-0.13c-0.35-0.08-0.67-0.2-0.97-0.33c-0.3-0.14-0.57-0.31-0.82-0.49
		c-0.24-0.19-0.45-0.39-0.62-0.6c-0.32-0.55-0.57-1.21-0.76-1.97c-0.18-0.76-0.27-1.6-0.27-2.52c0-1.96,0.44-3.39,1.34-4.26
		c0.45-0.46,0.95-0.79,1.49-1.01c0.54-0.21,1.13-0.32,1.77-0.32h0.08c0.54,0.09,1.06,0.29,1.55,0.62c0.48,0.33,0.92,0.74,1.31,1.24
		c0.39,0.51,0.73,1.09,1,1.75c0.28,0.67,0.48,1.38,0.62,2.14C406.6,526.92,406.48,527.74,406.25,528.47z M410.35,520.24
		c-0.22,0.25-0.54,0.59-0.96,1.02c-0.27-0.4-0.56-0.76-0.88-1.08c-0.32-0.33-0.67-0.6-1.03-0.83c0.09-0.05,0.17-0.08,0.23-0.08
		c1.03-0.25,1.8-0.37,2.31-0.37c0.17,0,0.26-0.02,0.26-0.04c0.13,0.19,0.23,0.34,0.3,0.48c0.06,0.14,0.1,0.26,0.1,0.37
		C410.68,519.81,410.57,519.98,410.35,520.24z"/>
	<path class="st0" d="M434.75,530.43c-0.06,0.09-0.13,0.22-0.22,0.38c-0.09,0.15-0.18,0.33-0.29,0.53
		c-0.11,0.19-0.22,0.41-0.33,0.63c-0.11,0.21-0.23,0.42-0.33,0.63c-0.79,1.09-1.65,1.91-2.58,2.47c-0.93,0.55-1.96,0.83-3.09,0.83
		h-0.22c-0.02,0-0.03,0-0.04-0.01c-0.01,0-0.01,0-0.02,0h-0.3c-0.53,0-1.03-0.04-1.52-0.12c-0.49-0.08-0.95-0.19-1.39-0.34
		c-0.43-0.14-0.82-0.31-1.18-0.51c-0.36-0.19-0.68-0.41-0.96-0.64c-0.46-0.51-0.87-1.17-1.23-1.97c-0.37-0.8-0.64-1.72-0.81-2.76
		l13.82-0.35c0.41-1.15,0.62-2.14,0.62-2.97c0-0.95-0.22-1.83-0.65-2.66c-0.25-0.44-0.46-0.8-0.65-1.08
		c-0.18-0.28-0.35-0.46-0.52-0.54c-0.85-1.13-1.83-1.99-2.92-2.58c-1.09-0.58-2.32-0.88-3.67-0.9c-1.39,0-2.74,0.17-4.07,0.52
		c-0.67,0.18-1.29,0.42-1.86,0.73c-0.57,0.3-1.08,0.64-1.52,1.02c-0.57,0.51-1.07,1.07-1.52,1.69c-0.44,0.62-0.81,1.29-1.11,2
		c-0.61,1.44-0.93,2.95-0.97,4.53c0.07,2.07,0.55,3.93,1.42,5.56c0.42,0.77,0.91,1.46,1.46,2.05c0.56,0.59,1.21,1.12,1.94,1.58
		c0.71,0.45,1.48,0.79,2.32,1c0.83,0.22,1.73,0.33,2.68,0.33c1.4,0,2.77-0.22,4.1-0.66c0.65-0.24,1.28-0.53,1.89-0.88
		c0.62-0.35,1.21-0.75,1.77-1.2c0.55-0.45,1.05-0.95,1.52-1.51c0.47-0.56,0.88-1.16,1.23-1.81c0.07-0.22,0.12-0.41,0.16-0.57
		c0.04-0.16,0.06-0.28,0.07-0.37c0.05-0.21,0.08-0.39,0.09-0.56c0.02-0.17,0.03-0.32,0.03-0.46
		C435.9,530.77,435.52,530.43,434.75,530.43z M419.93,526.33c0.05-0.3,0.08-0.55,0.11-0.77c0.03-0.21,0.05-0.39,0.06-0.54
		c0.15-0.39,0.37-0.79,0.64-1.18c0.27-0.4,0.62-0.79,1.04-1.18c0.45-0.41,0.94-0.71,1.48-0.9c0.55-0.2,1.17-0.29,1.86-0.29
		c0.16-0.03,0.31-0.04,0.46-0.05c0.15,0,0.29-0.01,0.42-0.01c0.83,0,1.58,0.15,2.24,0.46c0.66,0.3,1.23,0.74,1.7,1.33
		c0.44,0.59,0.8,1.12,1.05,1.6s0.38,0.87,0.38,1.15c0,0.08-0.03,0.17-0.08,0.3c0,0.07-0.22,0.09-0.67,0.05L419.93,526.33z"/>
</g>
</svg>
